# xmcd
#
# Track frame offsets:
#	150
#	12574
#	26144
#	38767
#	52086
#	61665
#	76200
#	90825
#	101510
#	116324
#	128852
#	140475
#	150375
#	169798
#	182850
#	196973
#	211349
#	224536
#	236593
#	253873
#	269696
#
# Disc length: 3794 seconds
#
# Revision: 1
# Processed by: cddbd v1.5.2PL0 Copyright (c) Steve Scherf et al.
# Submitted via: audiograbber 1.82.02
#
DISCID=260ed015
DTITLE=Webb Brothers - Thornside, We're Back
DYEAR=2000
DGENRE=Country
TTITLE0=The Palm River Song
TTITLE1=Next Door Neighbours Kid
TTITLE2=On The Old Verandah
TTITLE3=The Melody Of Rain
TTITLE4=Old Australia Home
TTITLE5=Saturday Dance
TTITLE6=Do You Remember
TTITLE7=Pop Said To Me
TTITLE8=Hand Of The Maker
TTITLE9=The Purple Petrol Eater
TTITLE10=Here On The Mountain
TTITLE11=Jude Rose Waltz
TTITLE12=We've Got The Country
TTITLE13=My Happy Song
TTITLE14=Sweet On My Mind
TTITLE15=The Jockeys Are Striking
TTITLE16=If Only
TTITLE17=Don't It Make You Wanna Go Home
TTITLE18=Dry Weather Blues
TTITLE19=Call Of The Bellbird
TTITLE20=Who Put The Roo In The Stew
EXTD=
EXTT0=
EXTT1=
EXTT2=
EXTT3=
EXTT4=
EXTT5=
EXTT6=
EXTT7=
EXTT8=
EXTT9=
EXTT10=
EXTT11=
EXTT12=
EXTT13=
EXTT14=
EXTT15=
EXTT16=
EXTT17=
EXTT18=
EXTT19=
EXTT20=
PLAYORDER=
